<svg width="100" height="100" viewBox="0 0 130 130" fill="none" xmlns="http://www.w3.org/2000/svg">
<path d="M106.313 80.0143L116.571 84.5089C117.206 84.7871 117.71 85.1754 118.084 85.6736C118.469 86.1772 118.702 86.7376 118.783 87.355C118.858 87.9847 118.763 88.627 118.498 89.2819C118.293 89.7885 118.033 90.1986 117.719 90.5121C117.4 90.838 117.088 91.0578 116.783 91.1715L115.525 89.8566C115.747 89.7355 115.963 89.5754 116.173 89.3764C116.395 89.1828 116.554 88.9686 116.649 88.7338C116.814 88.326 116.882 87.963 116.853 87.6446C116.831 87.344 116.727 87.0872 116.54 86.8743C116.353 86.6615 116.113 86.4908 115.82 86.3624L105.561 81.8678L105.937 80.941C105.992 80.8051 106.052 80.6568 106.117 80.4962C106.177 80.3479 106.242 80.1873 106.313 80.0143ZM114.703 81.5076L116.443 82.2701L113.678 89.0911L111.938 88.3286L114.703 81.5076Z" fill="white"/>
<path d="M103.081 87.4646L111.512 93.7234L110.334 95.438L107.524 93.3517L108.145 93.3649C108.518 93.8575 108.78 94.4172 108.932 95.044C109.094 95.6788 109.136 96.2995 109.059 96.906C108.993 97.5205 108.797 98.064 108.473 98.5366C108.284 98.8114 108.076 99.0553 107.849 99.2683C107.614 99.4924 107.405 99.644 107.221 99.7233L105.76 97.9668C105.978 97.8625 106.196 97.7093 106.416 97.5073C106.628 97.3162 106.809 97.1108 106.96 96.8909C107.217 96.5173 107.385 96.1194 107.465 95.6973C107.555 95.2832 107.571 94.8718 107.512 94.4631C107.446 94.0654 107.314 93.6933 107.115 93.3469C106.927 93.0083 106.678 92.7238 106.368 92.4933L101.903 89.1791L103.081 87.4646Z" fill="white"/>
<path d="M93.6181 98.6565C94.4999 97.9028 95.4301 97.4145 96.4088 97.1915C97.3856 96.9876 98.3239 97.0357 99.2237 97.3358C100.132 97.6464 100.912 98.2148 101.566 99.0411C102.219 99.8673 102.6 100.768 102.709 101.744C102.827 102.731 102.691 103.697 102.301 104.643C101.91 105.609 101.273 106.469 100.391 107.222C99.5195 107.967 98.5952 108.442 97.6184 108.646C96.6398 108.869 95.6964 108.825 94.7884 108.514C93.8886 108.214 93.1121 107.651 92.4588 106.825C91.8054 105.998 91.4201 105.092 91.3026 104.106C91.1935 103.13 91.3346 102.159 91.7261 101.194C92.1158 100.247 92.7464 99.4015 93.6181 98.6565ZM94.7842 100.131C94.2267 100.608 93.8201 101.157 93.5643 101.778C93.3067 102.419 93.2166 103.057 93.294 103.692C93.3695 104.346 93.6232 104.936 94.0551 105.46C94.475 106.013 94.9822 106.386 95.5765 106.579C96.1689 106.791 96.7883 106.822 97.4346 106.673C98.0708 106.533 98.6676 106.224 99.2251 105.748C99.7826 105.271 100.19 104.712 100.448 104.072C100.714 103.441 100.813 102.804 100.746 102.161C100.668 101.526 100.409 100.941 99.9693 100.405C99.5577 99.8634 99.0556 99.4863 98.4632 99.274C97.8689 99.0809 97.2444 99.0538 96.5898 99.1926C95.9435 99.3419 95.3416 99.6547 94.7842 100.131Z" fill="white"/>
<path d="M86.9971 104.16L90.8946 113.91L89.0035 114.727L88.083 112.424L88.5009 112.069C88.4955 112.594 88.3762 113.14 88.1429 113.705C87.9145 114.283 87.583 114.818 87.1484 115.311C86.7016 115.809 86.1722 116.19 85.5602 116.454C84.7157 116.819 83.9451 116.956 83.2484 116.865C82.5445 116.792 81.9305 116.513 81.4065 116.028C80.8825 115.543 80.4497 114.873 80.1082 114.019L77.7623 108.15L79.6533 107.333L81.9176 112.997C82.1403 113.554 82.4299 113.974 82.7865 114.255C83.1357 114.555 83.5372 114.715 83.9908 114.737C84.4372 114.776 84.9088 114.681 85.4057 114.452C85.8341 114.267 86.2022 114.021 86.51 113.714C86.8055 113.412 87.0385 113.079 87.2088 112.715C87.379 112.351 87.4758 111.982 87.4989 111.609C87.527 111.249 87.4767 110.907 87.348 110.586L85.1061 104.977L86.0424 104.572C86.2627 104.477 86.4524 104.395 86.6115 104.327C86.7706 104.258 86.8992 104.202 86.9971 104.16Z" fill="white"/>
<path d="M72.8279 109.142L74.7087 122.43L72.6724 122.741L70.7916 109.454L72.8279 109.142ZM76.6486 117.156L76.9289 119.136L69.2186 120.316L68.9383 118.336L76.6486 117.156Z" fill="white"/>
<path d="M65.6086 114.674L65.522 116.672L59.2089 116.376L59.2955 114.378L65.6086 114.674Z" fill="white"/>
<path d="M52.1197 107.717C53.2721 108.051 54.2375 108.568 55.0162 109.266C55.7913 109.977 56.3311 110.793 56.6357 111.715C56.9274 112.632 56.9383 113.593 56.6683 114.598C56.4468 115.422 56.1006 116.119 55.6296 116.69C55.1586 117.262 54.603 117.711 53.9628 118.039C53.3098 118.363 52.5966 118.551 51.8232 118.604C51.0497 118.657 50.2597 118.566 49.453 118.332C48.7232 118.12 48.0775 117.8 47.5158 117.373C46.9414 116.943 46.4761 116.44 46.1201 115.864C45.764 115.289 45.5392 114.661 45.4458 113.982C45.3361 113.311 45.3846 112.618 45.5912 111.9L45.8595 110.979L55.1744 113.685L55.1905 115.397L47.1432 113.059L47.4988 112.892L47.3742 113.355C47.3112 113.795 47.3884 114.227 47.6057 114.651C47.823 115.075 48.1362 115.451 48.5452 115.778C48.9542 116.105 49.4212 116.344 49.9462 116.497C50.7144 116.72 51.4195 116.793 52.0615 116.716C52.6906 116.635 53.2344 116.383 53.6929 115.961C54.1352 115.548 54.4619 114.949 54.673 114.164C54.8633 113.456 54.8484 112.792 54.6284 112.173C54.4083 111.553 54.0162 111.009 53.4521 110.54C52.8881 110.071 52.1899 109.715 51.3577 109.473C50.6406 109.265 49.992 109.188 49.4116 109.241C48.8313 109.295 48.2558 109.433 47.6852 109.656L47.1334 107.934C47.5424 107.747 48.0295 107.604 48.5946 107.505C49.1563 107.418 49.7442 107.387 50.3585 107.413C50.9564 107.448 51.5435 107.549 52.1197 107.717Z" fill="white"/>
<path d="M45.1556 105.315L39.7535 114.319L38.0252 113.198L39.3011 111.072L39.8197 111.218C39.4049 111.52 38.9088 111.739 38.3313 111.872C37.747 112.017 37.1367 112.05 36.5004 111.971C35.8529 111.885 35.2495 111.66 34.6902 111.298C33.9183 110.797 33.3677 110.226 33.0383 109.583C32.6909 108.945 32.5566 108.262 32.6354 107.535C32.7142 106.808 32.9903 106.05 33.4636 105.261L36.7151 99.8417L38.4435 100.963L35.3052 106.193C34.9965 106.708 34.8343 107.198 34.8187 107.665C34.785 108.135 34.8902 108.569 35.1341 108.965C35.3599 109.366 35.7056 109.709 36.1711 109.995C36.5626 110.249 36.9674 110.416 37.3853 110.496C37.792 110.57 38.1871 110.572 38.5704 110.503C38.9537 110.434 39.2982 110.3 39.6039 110.101C39.9028 109.913 40.1414 109.671 40.3198 109.374L43.4272 104.195L44.283 104.75C44.4844 104.88 44.6578 104.993 44.8032 105.087C44.9486 105.181 45.0661 105.257 45.1556 105.315Z" fill="white"/>
<path d="M31.763 94.0778C32.4558 94.9064 32.8942 95.7942 33.0782 96.7413C33.2524 97.6973 33.1874 98.627 32.8833 99.5304C32.5694 100.443 32.0217 101.252 31.2402 101.958C30.4587 102.665 29.6166 103.111 28.7139 103.299C27.7927 103.485 26.8938 103.417 26.0173 103.096C25.1224 102.773 24.3328 102.203 23.6486 101.384C23.2467 100.904 22.9347 100.396 22.7126 99.8599C22.482 99.3141 22.3386 98.7791 22.2826 98.2551C22.2081 97.7298 22.2224 97.2589 22.3257 96.8423C22.419 96.4347 22.5894 96.1192 22.8367 95.8957L23.2512 96.3291L18.0431 101.036L16.7217 99.4558L27.7018 89.5322L29.0232 91.1126L27.0497 92.8961L26.8377 92.549C27.0751 92.3345 27.3937 92.2171 27.7937 92.1969C28.185 92.1664 28.6171 92.2159 29.09 92.3452C29.5628 92.4746 30.0346 92.6857 30.5053 92.9787C30.976 93.2716 31.3953 93.638 31.763 94.0778ZM30.1818 95.022C29.7114 94.4594 29.1779 94.0706 28.5813 93.8555C27.9762 93.6302 27.3682 93.5781 26.7573 93.6992C26.1465 93.8202 25.5839 94.1132 25.0695 94.5781C24.5551 95.043 24.1978 95.5814 23.9974 96.1935C23.7971 96.8055 23.7671 97.4343 23.9074 98.0797C24.0292 98.7239 24.3253 99.3273 24.7956 99.8899C25.266 100.452 25.8038 100.846 26.409 101.072C26.9957 101.296 27.5945 101.347 28.2053 101.226C28.8162 101.105 29.3788 100.812 29.8932 100.347C30.4075 99.8823 30.7649 99.3438 30.9652 98.7318C31.1655 98.1198 31.2048 97.4916 31.083 96.8475C30.9526 96.1931 30.6522 95.5846 30.1818 95.022Z" fill="white"/>
<path d="M8.5907 72.7453C8.60836 72.9043 8.46274 73.0426 8.32374 73.0593C8.26417 73.0664 8.24431 73.0688 8.22224 73.0513L5.36714 72.3466C5.22373 72.3235 5.17518 72.2487 5.15973 72.1096C5.14649 71.9903 5.17517 71.8862 5.30976 71.8297L7.93754 70.4871L8.03462 70.4553C8.17362 70.4386 8.34573 70.5388 8.36338 70.6978L8.5907 72.7453ZM11.4371 76.2711C11.4525 76.4102 11.4018 76.4969 11.2892 76.5708L8.78282 78.1003C8.74531 78.125 8.7078 78.1496 8.66809 78.1544C8.46951 78.1782 8.35257 78.0311 8.33712 77.8919C8.3305 77.8323 8.34815 77.81 8.34373 77.7703L9.28137 74.9788C9.31005 74.8746 9.40051 74.7832 9.51966 74.7689C9.61894 74.757 9.68072 74.7697 9.72706 74.8246L11.3179 76.1041C11.3819 76.1367 11.4282 76.1916 11.4371 76.2711ZM10.3534 66.511C10.3667 66.6303 10.3358 66.7146 10.285 66.8012L9.01199 68.3842C8.9789 68.4486 8.92374 68.4955 8.82445 68.5074C8.72517 68.5193 8.61926 68.4716 8.54644 68.3595L7.01954 65.8436C7.01733 65.8237 6.99306 65.7863 6.98865 65.7466C6.97099 65.5875 7.07469 65.4341 7.25341 65.4127C7.27326 65.4103 7.29312 65.4079 7.31519 65.4254L7.37697 65.4381L10.1526 66.3337C10.2585 66.3814 10.3247 66.4339 10.3534 66.511ZM18.7224 70.4819C19.0115 73.0859 17.1406 75.4456 14.5392 75.7578C11.9379 76.07 9.61893 74.2131 9.32981 71.6091C9.04511 69.0449 10.8918 66.6479 13.4931 66.3357C16.1143 66.0211 18.4377 67.9177 18.7224 70.4819ZM17.5508 70.6225C17.3367 68.6944 15.5892 67.2725 13.6233 67.5085C11.6773 67.742 10.2873 69.5404 10.5014 71.4685C10.7177 73.4166 12.463 74.8185 14.409 74.585C16.3551 74.3514 17.7671 72.5706 17.5508 70.6225ZM15.9778 76.7534L15.969 76.8552L15.2609 79.7199C15.2344 79.8439 15.1219 79.9178 15.0027 79.9321C14.8836 79.9464 14.7777 79.8987 14.7247 79.7842L13.3809 77.1053L13.3765 77.0656C13.3566 76.8867 13.4846 76.7706 13.6435 76.7516L15.6491 76.5109C15.8079 76.4918 15.958 76.5745 15.9778 76.7534ZM14.6779 65.0453C14.6956 65.2044 14.5897 65.3379 14.411 65.3594L12.4054 65.6001C12.2465 65.6191 12.0965 65.5364 12.0788 65.3774C12.0744 65.3377 12.07 65.2979 12.0854 65.2558L12.7936 62.3911C12.8377 62.2448 12.9105 62.1756 13.0297 62.1613C13.1687 62.1446 13.2547 62.1947 13.3297 62.3267L14.647 64.9483L14.6779 65.0453ZM21.0658 76.3644C21.0856 76.5433 20.9797 76.6768 20.801 76.6983L20.7392 76.6855C20.7194 76.6879 20.6995 76.6903 20.6775 76.6728L17.8819 75.7796C17.776 75.7319 17.7076 75.6595 17.6944 75.5403C17.6833 75.4409 17.7164 75.3765 17.7517 75.3319L19.0402 73.7069C19.0733 73.6425 19.1505 73.6131 19.23 73.6036C19.3293 73.5916 19.4572 73.6569 19.508 73.7515L21.0128 76.2499C21.0371 76.2872 21.0614 76.3246 21.0658 76.3644ZM19.7173 64.219C19.7217 64.2587 19.7041 64.281 19.6886 64.3231L18.7731 67.1321C18.7267 67.2586 18.6539 67.3277 18.5348 67.342C18.4553 67.3516 18.3715 67.3213 18.3252 67.2665L16.7189 66.0291C16.6725 65.9742 16.624 65.8995 16.6152 65.82C16.6041 65.7206 16.6527 65.6141 16.7453 65.5425L19.2716 64.0106L19.329 63.9836C19.3687 63.9788 19.3687 63.9788 19.3863 63.9566C19.5452 63.9375 19.6975 64.0401 19.7173 64.219ZM22.8925 69.9815C22.9057 70.1007 22.8572 70.2073 22.7425 70.2613L20.1169 71.6238C20.097 71.6262 20.0772 71.6286 20.0198 71.6556C19.861 71.6747 19.7109 71.592 19.6911 71.4131L19.4637 69.3657C19.4483 69.2265 19.5718 69.0707 19.7307 69.0516C19.7704 69.0469 19.8101 69.0421 19.8322 69.0596L22.6851 69.7445C22.8086 69.77 22.8793 69.8622 22.8925 69.9815Z" fill="white"/>
<path d="M26.2311 44.0943C25.9799 44.5798 25.665 45.0145 25.2864 45.3982C24.914 45.7702 24.5222 46.0779 24.1112 46.3213C23.6885 46.5583 23.279 46.7263 22.8827 46.8253C22.4809 46.906 22.1394 46.9135 21.8582 46.8479L21.9961 46.1463L24.2305 47.3958L23.284 49.2254L10.4188 42.0312L11.3654 40.2016L17.2132 43.4717L16.9053 43.8492C16.6861 43.635 16.5066 43.3438 16.367 42.9756C16.2274 42.6074 16.1448 42.1871 16.1191 41.7147C16.0818 41.2358 16.1124 40.7415 16.2111 40.2317C16.2981 39.7155 16.4642 39.2205 16.7093 38.7468C17.1871 37.8231 17.8166 37.1139 18.5976 36.6193C19.3848 36.1128 20.2494 35.8482 21.1915 35.8253C22.1219 35.7959 23.0468 36.0383 23.9661 36.5524C24.8855 37.0665 25.5956 37.7385 26.0966 38.5683C26.6037 39.3862 26.8768 40.2795 26.9159 41.248C26.9434 42.21 26.7151 43.1587 26.2311 44.0943ZM24.4533 43.3979C24.7902 42.7465 24.9536 42.0974 24.9432 41.4503C24.9212 40.7967 24.751 40.1977 24.4326 39.6532C24.1086 39.0903 23.6498 38.6429 23.0563 38.311C22.4628 37.9791 21.8598 37.8251 21.2473 37.8491C20.6231 37.8665 20.0455 38.0549 19.5144 38.4145C18.9894 38.7622 18.5584 39.2617 18.2215 39.913C17.8845 40.5644 17.7181 41.2195 17.7224 41.8784C17.7327 42.5255 17.8999 43.1304 18.2238 43.6933C18.5423 44.2378 18.9983 44.676 19.5918 45.0079C20.1853 45.3398 20.7941 45.497 21.4183 45.4796C22.0369 45.4439 22.6146 45.2554 23.1512 44.9142C23.6823 44.5547 24.1163 44.0492 24.4533 43.3979Z" fill="white"/>
<path d="M32.6893 34.6333C31.97 35.3659 31.1701 35.8477 30.2895 36.0789C29.3999 36.3004 28.5081 36.2767 27.6143 36.008C26.7298 35.7298 25.9264 35.2074 25.204 34.4407C24.4817 33.6741 24.0052 32.8283 23.7744 31.9033C23.5438 30.9592 23.5581 30.0223 23.8172 29.0928C24.0764 28.1633 24.575 27.3228 25.313 26.5712C25.7614 26.1145 26.2318 25.759 26.7244 25.5046C27.2171 25.231 27.7042 25.0582 28.1856 24.9863C28.667 24.9144 29.1152 24.9238 29.5302 25.0146C29.9361 25.0957 30.2809 25.2674 30.5648 25.5298L30.1596 25.8284L28.2944 23.8487L29.7376 22.3788L36.9381 30.021L35.4948 31.4909L33.6707 29.5549L33.9652 29.2264C34.1564 29.507 34.2775 29.8687 34.3284 30.3113C34.3795 30.7346 34.3469 31.2052 34.2306 31.7229C34.1237 32.2312 33.9428 32.7386 33.688 33.2453C33.4332 33.752 33.1003 34.2147 32.6893 34.6333ZM31.7507 32.8794C32.2645 32.3561 32.6124 31.7831 32.7944 31.1603C32.9858 30.528 33.0108 29.9036 32.8692 29.2871C32.7186 28.6609 32.4055 28.0955 31.93 27.5909C31.4729 27.1056 30.9493 26.7831 30.3594 26.6233C29.7694 26.4634 29.1685 26.4764 28.5565 26.6623C27.9447 26.829 27.3819 27.1739 26.8681 27.6972C26.3543 28.2205 26.011 28.7983 25.8381 29.4308C25.656 30.0536 25.6358 30.6732 25.7773 31.2897C25.9188 31.9062 26.2182 32.4571 26.6753 32.9423C27.1508 33.447 27.6881 33.7841 28.2871 33.9536C28.8771 34.1135 29.4734 34.1052 30.076 33.9288C30.6787 33.7525 31.2369 33.4026 31.7507 32.8794Z" fill="white"/>
<path d="M43.5913 25.8615C42.65 26.3911 41.6967 26.6522 40.7314 26.6448C39.7777 26.6309 38.8892 26.3815 38.066 25.8967C37.2543 25.4053 36.6115 24.7042 36.1375 23.7935C35.6635 22.8828 35.4507 21.9399 35.499 20.9647C35.5589 19.983 35.8441 19.0733 36.3546 18.2357C36.8767 17.3915 37.6083 16.7046 38.5496 16.175C39.4676 15.6586 40.3963 15.3502 41.3356 15.2498C42.2749 15.1495 43.1015 15.2655 43.8153 15.5979L43.5235 17.5051C43.1318 17.3586 42.6942 17.2684 42.2108 17.2345C41.7391 17.1941 41.266 17.2232 40.7916 17.3219C40.3226 17.4023 39.8964 17.5504 39.5129 17.7661C38.8854 18.1191 38.3957 18.5781 38.0438 19.1431C37.6973 19.6897 37.5108 20.2839 37.4843 20.9258C37.4578 21.5676 37.6015 22.1901 37.9155 22.7933C38.2294 23.3965 38.6578 23.8588 39.2007 24.1803C39.7491 24.4834 40.3412 24.6396 40.977 24.6488C41.6244 24.6516 42.2503 24.4829 42.8545 24.143C43.2961 23.8945 43.6721 23.6066 43.9824 23.2791C44.3043 22.9451 44.5756 22.586 44.7963 22.2019C45.0225 21.7994 45.2015 21.3929 45.3334 20.9823L47.0102 21.7362C46.7684 22.4839 46.356 23.2357 45.773 23.9919C45.2017 24.7414 44.4744 25.3647 43.5913 25.8615Z" fill="white"/>
<path d="M51.0106 18.9794L50.5615 16.7838L55.2181 10.2914L57.9595 9.62998L51.0106 18.9794ZM49.9813 22.3545L46.7573 7.90987L48.6821 7.44551L51.9061 21.8901L49.9813 22.3545ZM57.7971 20.4688L52.2533 16.5608L53.3418 14.9199L60.3634 19.8497L57.7971 20.4688Z" fill="white"/>
<path d="M61.6896 15.26V13.26H68.0096V15.26H61.6896Z" fill="white"/>
<path d="M75.4429 21.5004C74.2753 21.2234 73.286 20.7559 72.4751 20.0977C71.6669 19.4264 71.0892 18.6386 70.7417 17.7341C70.4072 16.8327 70.3514 15.874 70.5743 14.8582C70.7572 14.0247 71.0708 13.3113 71.5149 12.7178C71.959 12.1244 72.4934 11.6483 73.1181 11.2895C73.7558 10.9338 74.4599 10.7104 75.2306 10.6191C76.0013 10.5279 76.7953 10.5792 77.6126 10.7731C78.3521 10.9485 79.0126 11.2353 79.594 11.6336C80.1883 12.0349 80.6769 12.5138 81.0598 13.0705C81.4426 13.6271 81.6966 14.2423 81.8218 14.9159C81.9628 15.5796 81.9467 16.2746 81.7737 17.0009L81.5485 17.9339L72.1104 15.6953L72.0143 13.9872L80.1681 15.9212L79.8205 16.106L79.9233 15.6371C79.9657 15.195 79.8684 14.7678 79.6314 14.3553C79.3943 13.9428 79.0637 13.5835 78.6395 13.2774C78.2154 12.9713 77.7373 12.7551 77.2054 12.6289C76.427 12.4443 75.7187 12.4065 75.0806 12.5155C74.4555 12.6275 73.9236 12.9055 73.485 13.3495C73.0622 13.7836 72.7636 14.3979 72.5893 15.1923C72.4321 15.9086 72.478 16.5703 72.7269 17.1774C72.9758 17.7845 73.3932 18.3082 73.979 18.7486C74.5648 19.189 75.2793 19.5092 76.1226 19.7092C76.8491 19.8815 77.5012 19.9266 78.0788 19.8443C78.6565 19.7621 79.2253 19.5956 79.7853 19.3448L80.4174 21.0361C80.0172 21.2427 79.537 21.4096 78.9767 21.5371C78.4193 21.6515 77.833 21.7111 77.2177 21.7159C76.6183 21.7107 76.0267 21.6389 75.4429 21.5004Z" fill="white"/>
<path d="M82.3981 23.4278L87.345 14.1661L89.129 15.1961L87.9606 17.3837L87.4349 17.2648C87.8342 16.9414 88.3192 16.6982 88.8897 16.5352C89.4665 16.3604 90.0749 16.2962 90.7149 16.3425C91.3664 16.3956 91.9809 16.5887 92.5582 16.9221C93.355 17.3821 93.9341 17.9242 94.2957 18.5484C94.6751 19.1675 94.8436 19.8418 94.8014 20.5715C94.7592 21.3011 94.5214 22.0716 94.0879 22.8831L91.1104 28.4578L89.3263 27.4278L92.2002 22.0472C92.4829 21.518 92.6203 21.0203 92.6125 20.5541C92.6225 20.0828 92.4956 19.6557 92.2319 19.2726C91.986 18.8844 91.6232 18.5596 91.1434 18.298C90.7393 18.0647 90.3263 17.9186 89.9045 17.8597C89.4943 17.8075 89.0993 17.8257 88.7197 17.9142C88.34 18.0028 88.0024 18.1541 87.7067 18.3681C87.4174 18.5703 87.1911 18.8244 87.0278 19.1301L84.1821 24.4578L83.2988 23.9478C83.0909 23.8278 82.912 23.7245 82.7618 23.6378C82.6117 23.5511 82.4905 23.4811 82.3981 23.4278Z" fill="white"/>
<path d="M96.4434 33.9635C95.7095 33.1713 95.2264 32.3068 94.9944 31.3702C94.7718 30.4241 94.7892 29.4921 95.0468 28.5743C95.3138 27.647 95.8195 26.8107 96.5638 26.0654C97.3081 25.32 98.1262 24.8308 99.018 24.5976C99.9284 24.3648 100.829 24.3865 101.721 24.6627C102.631 24.9393 103.448 25.4688 104.173 26.2513C104.599 26.711 104.937 27.2027 105.186 27.7264C105.444 28.2598 105.614 28.7868 105.697 29.3074C105.798 29.8283 105.808 30.2994 105.726 30.7208C105.653 31.1327 105.499 31.4566 105.264 31.6925L104.828 31.2806L109.788 26.3133L111.188 27.8245L100.73 38.2969L99.3303 36.7857L101.21 34.9035L101.439 35.2394C101.213 35.4658 100.901 35.5993 100.503 35.6399C100.114 35.6903 99.6796 35.6629 99.2008 35.5578C98.7221 35.4527 98.2402 35.2659 97.7553 34.9973C97.2703 34.7287 96.8331 34.3841 96.4434 33.9635ZM97.9741 32.9398C98.4725 33.4778 99.025 33.8389 99.6317 34.0233C100.247 34.2175 100.857 34.2385 101.461 34.0864C102.065 33.9344 102.612 33.613 103.102 33.1224C103.591 32.6318 103.921 32.0758 104.09 31.4542C104.258 30.8326 104.256 30.2031 104.083 29.5655C103.929 28.9282 103.603 28.3406 103.104 27.8027C102.606 27.2647 102.049 26.8987 101.433 26.7045C100.836 26.5107 100.235 26.4898 99.6315 26.6419C99.0277 26.794 98.4809 27.1153 97.9909 27.6059C97.501 28.0965 97.1716 28.6526 97.0028 29.2741C96.834 29.8957 96.8268 30.5251 96.9813 31.1623C97.1448 31.8093 97.4758 32.4018 97.9741 32.9398Z" fill="white"/>
<path d="M120.765 54.246C120.74 54.088 120.878 53.9421 121.016 53.918C121.075 53.9077 121.095 53.9043 121.118 53.9206L124.003 54.4732C124.147 54.4886 124.199 54.5607 124.221 54.6989C124.24 54.8174 124.217 54.923 124.085 54.9865L121.529 56.4676L121.434 56.5046C121.296 56.5286 121.119 56.4376 121.093 56.2797L120.765 54.246ZM117.75 50.8741C117.728 50.7359 117.774 50.6466 117.883 50.5668L120.309 48.9054C120.345 48.8788 120.381 48.8522 120.421 48.8453C120.618 48.8109 120.742 48.9517 120.764 49.0899C120.774 49.1492 120.757 49.1724 120.763 49.2118L119.966 52.0509C119.942 52.1565 119.856 52.2527 119.738 52.2733C119.64 52.2905 119.577 52.281 119.528 52.2287L117.877 51.0347C117.812 51.0055 117.763 50.9531 117.75 50.8741ZM119.314 60.5688C119.295 60.4503 119.322 60.3645 119.368 60.2752L120.56 58.6259C120.59 58.5598 120.643 58.51 120.741 58.4929C120.84 58.4757 120.948 58.5177 121.026 58.6259L122.675 61.0587C122.678 61.0784 122.704 61.1145 122.71 61.154C122.736 61.3119 122.64 61.4707 122.463 61.5017C122.443 61.5051 122.423 61.5085 122.4 61.4922L122.338 61.4828L119.523 60.7353C119.415 60.6933 119.346 60.6443 119.314 60.5688ZM110.764 57.0455C110.347 54.459 112.098 52.0019 114.679 51.5518C117.26 51.1017 119.666 52.8339 120.084 55.4204C120.495 57.9675 118.77 60.4607 116.189 60.9108C113.588 61.3643 111.175 59.5926 110.764 57.0455ZM111.927 56.8428C112.236 58.7581 114.05 60.086 116.001 59.7458C117.932 59.4091 119.23 57.5384 118.921 55.6231C118.609 53.6882 116.798 52.38 114.867 52.7167C112.936 53.0534 111.615 54.9079 111.927 56.8428ZM113.194 50.6333L113.198 50.5312L113.763 47.6312C113.783 47.5058 113.892 47.426 114.01 47.4054C114.128 47.3848 114.236 47.4268 114.295 47.5384L115.769 50.1438L115.775 50.1833C115.804 50.361 115.682 50.4837 115.524 50.5112L113.534 50.8582C113.376 50.8857 113.223 50.811 113.194 50.6333ZM115.07 62.263C115.045 62.105 115.144 61.9659 115.321 61.935L117.311 61.588C117.469 61.5605 117.622 61.6352 117.648 61.7931C117.654 61.8326 117.661 61.8721 117.647 61.915L117.082 64.815C117.045 64.9636 116.976 65.0365 116.858 65.0572C116.72 65.0812 116.631 65.0357 116.55 64.9078L115.106 62.3583L115.07 62.263ZM108.135 51.2923C108.106 51.1146 108.205 50.9755 108.382 50.9446L108.445 50.954C108.464 50.9506 108.484 50.9471 108.507 50.9634L111.341 51.7075C111.449 51.7495 111.521 51.8182 111.54 51.9367C111.556 52.0354 111.527 52.1015 111.493 52.1479L110.288 53.84C110.258 53.9061 110.182 53.9396 110.103 53.9534C110.005 53.9705 109.874 53.9122 109.819 53.8203L108.193 51.4039C108.167 51.3678 108.141 51.3318 108.135 51.2923ZM110.081 63.3563C110.074 63.3168 110.091 63.2936 110.104 63.2507L110.879 60.3953C110.919 60.2665 110.989 60.1936 111.107 60.173C111.186 60.1592 111.271 60.185 111.32 60.2373L112.984 61.3884C113.033 61.4407 113.085 61.5129 113.098 61.5918C113.114 61.6906 113.071 61.7996 112.982 61.876L110.536 63.5408L110.48 63.5709C110.441 63.5777 110.441 63.5777 110.424 63.6009C110.267 63.6284 110.11 63.534 110.081 63.3563ZM106.627 57.7671C106.608 57.6486 106.651 57.5396 106.763 57.4795L109.316 55.9786C109.336 55.9752 109.355 55.9717 109.411 55.9417C109.569 55.9142 109.723 55.9889 109.752 56.1666L110.08 58.2003C110.102 58.3385 109.986 58.5007 109.829 58.5282C109.789 58.5351 109.75 58.542 109.727 58.5257L106.846 57.9928C106.721 57.9739 106.646 57.8855 106.627 57.7671Z" fill="white"/>
</svg>
